<?xml version="1.0" encoding="UTF-8"?>
<svg version="1.1" xmlns="http://www.w3.org/2000/svg" width="512" height="512">
<path d="M0 0 C7.88704865 5.15850828 14.56787897 13.42250807 21.21484375 20.08203125 C22.47882249 21.34533532 23.74294955 22.60849101 25.00721741 23.87150574 C27.64030836 26.50313061 30.27160244 29.13653528 32.90161133 31.77124023 C36.27653114 35.15189205 39.65596843 38.52798695 43.03673458 41.90279102 C45.64040062 44.50285194 48.24169075 47.10527933 50.84225655 49.70844078 C52.08829881 50.95515063 53.33508574 52.20111669 54.58262444 53.44632912 C56.31784479 55.17901999 58.04984472 56.91486611 59.78100586 58.65161133 C60.29783432 59.16641556 60.81466278 59.68121979 61.34715271 60.21162415 C64.50430477 63.38774133 65.89249495 64.83894548 66.3125 69.375 C66 73 66 73 64.5 75.4375 C61.75442616 77.15348365 59.65357164 77.79522519 56.40429688 77.71289062 C50.67311001 76.01355415 46.55060907 70.49749431 42.5 66.28125 C41.41460184 65.18091893 40.32741481 64.08234985 39.23852539 62.98547363 C36.38630509 60.10280244 33.55893016 57.19692358 30.73614502 54.28546143 C27.84789672 51.31517042 24.93668208 48.36757941 22.02734375 45.41796875 C16.32889957 39.63389305 10.65651439 33.82508601 5 28 C4.65109897 38.74393654 4.38526988 49.48650836 4.22281742 60.23497391 C4.14480658 65.22738143 4.03919883 70.21589114 3.8684082 75.20605469 C3.70434023 80.03048075 3.61553023 84.85118259 3.57684135 89.67818451 C3.54930913 91.51098021 3.49553267 93.34359132 3.41404915 95.1747818 C2.79111142 105.05803535 2.79111142 105.05803535 6.44215012 113.92301941 C9.94790224 117.44805067 13.88885666 120.18403204 18.1033783 122.79299355 C20.99521987 124.63335604 23.62807061 126.74555969 26.3125 128.875 C27.37693447 129.69097853 28.44187236 130.50630187 29.5078125 131.3203125 C33.58436399 134.44212382 37.63589903 137.5959138 41.6875 140.75 C42.44909424 141.34280762 43.21068848 141.93561523 43.99536133 142.54638672 C45.55345805 143.75934681 47.11148163 144.97240086 48.66943359 146.18554688 C52.44517266 149.12513338 56.22265535 152.06247715 60 155 C61.50000877 156.16665539 63.00000876 157.33332207 64.5 158.5 C65.2425 159.0775 65.985 159.655 66.75 160.25 C109.5 193.5 109.5 193.5 111.75170898 195.25146484 C113.24583698 196.41347426 114.74013928 197.57525957 116.23461914 198.73681641 C120.07594969 201.72288835 123.91381021 204.71326109 127.74609375 207.7109375 C128.92461914 208.63132813 128.92461914 208.63132813 130.12695312 209.5703125 C131.60207087 210.72247547 133.07613822 211.87598539 134.54882812 213.03125 C136.68893782 214.70138273 138.84106736 216.35427355 141 218 C141.82056885 218.62922363 142.6411377 219.25844727 143.48657227 219.90673828 C150.67361204 225.28962404 158.240123 229.75975459 166.0625 234.125 C168.4713488 235.47947379 170.87820566 236.83746921 173.28515625 238.1953125 C174.42098145 238.83500977 175.55680664 239.47470703 176.72705078 240.13378906 C181.196438 242.68219991 185.60816465 245.32055723 190 248 C179.29379092 228.32047786 168.49056645 208.69802077 157.00027466 189.46250916 C155.54211112 186.93840349 154.16237315 184.41931335 152.81613159 181.83746338 C146.64013056 170.24585205 139.35734128 161.30857837 129.90382004 152.24137115 C127.58138889 150.01381544 125.28581441 147.76121282 122.99453735 145.50164795 C118.96425113 141.53509555 114.91293506 137.5908895 110.8536377 133.65405273 C104.32026505 127.31727653 97.80545382 120.96214753 91.31929398 114.57704926 C89.06009003 112.36402827 86.78285639 110.17082869 84.50375366 107.97833252 C83.12327458 106.62602972 81.74356276 105.27294307 80.36474609 103.91894531 C79.73107117 103.3194104 79.09739624 102.71987549 78.44451904 102.10217285 C75.43198146 99.10701032 74.12110831 97.45656484 73.00454712 93.24725342 C73 90 73 90 74.5625 87.125 C77.51902195 84.54751932 79.08967888 84 83 84 C87.67926769 86.27424983 91.09004471 89.74876946 94.75537109 93.35375977 C95.41475677 93.99518417 96.07414246 94.63660858 96.75350952 95.29747009 C98.9331462 97.42242588 101.10439704 99.55563746 103.2734375 101.69140625 C104.02240925 102.42848249 104.771381 103.16555874 105.54304886 103.92497063 C109.52232509 107.84491545 113.49379655 111.77260683 117.46044922 115.70532227 C120.70392931 118.91795426 123.96228078 122.11417062 127.23583984 125.29614258 C146.87161063 144.39464026 164.82230887 162.06407711 175 188 C182.20355752 181.99280717 188.72993676 175.35339939 195.3125 168.6875 C197.45152309 166.52183822 199.59388197 164.35955569 201.73828125 162.19921875 C202.46486687 161.46018562 202.46486687 161.46018562 203.20613098 160.70622253 C206.36848939 157.52087815 208.65448836 155.23744323 213.1875 154.4375 C217.20231937 155.0298504 217.87782188 155.4376911 220.7109375 158.04296875 C221.40888428 158.67887939 222.10683105 159.31479004 222.82592773 159.9699707 C223.54337158 160.63988037 224.26081543 161.30979004 225 162 C225.69101807 162.63703857 226.38203613 163.27407715 227.09399414 163.93041992 C229.21954153 165.90050609 231.33052816 167.88506882 233.4375 169.875 C234.17814697 170.57246338 234.91879395 171.26992676 235.68188477 171.98852539 C240.35766859 176.40565538 244.95557378 180.8778618 249.43359375 185.49609375 C250.94512538 187.09625213 250.94512538 187.09625213 253 188 C253.2789209 187.27651367 253.5578418 186.55302734 253.84521484 185.80761719 C255.77662026 181.1118112 258.20473159 176.70869836 260.625 172.25 C261.10195313 171.31800781 261.57890625 170.38601562 262.0703125 169.42578125 C265.45580217 163.24394349 269.39391856 158.20981418 274.23632812 153.13574219 C274.91287004 152.42241226 275.58941196 151.70908234 276.28645515 150.97413635 C288.71035849 137.97800955 301.51258376 125.34220817 314.230371 112.6353035 C318.16267025 108.70556396 322.09249766 104.77335365 326.0227356 100.84155273 C332.60206846 94.26041183 339.18348249 87.68135774 345.76611328 81.10351562 C353.37887781 73.49622515 360.98798756 65.88529323 368.59527576 58.27252674 C375.14830268 51.71497006 381.70326566 45.15935347 388.25986874 38.60537243 C392.16753696 34.69926339 396.07452568 30.79248115 399.97976303 26.88394165 C403.63674852 23.22407832 407.29615081 19.56664917 410.95747375 15.91112518 C412.30239363 14.56753192 413.6464552 13.22307889 414.98961258 11.87772369 C416.81621044 10.04841136 418.645831 8.22217822 420.47628784 6.39672852 C421.0120629 5.85872273 421.54783796 5.32071695 422.09984863 4.76640797 C426.17041323 0.71756173 428.1538613 -0.10617249 433.9296875 -0.5234375 C437.32875933 0.33595047 438.18538847 2.03841935 440 5 C440.63571961 8.47560841 440.63887473 11.9221284 440.66040039 15.44873047 C440.69259926 17.02836327 440.69259926 17.02836327 440.72544861 18.63990784 C440.7890483 22.1324191 440.82114849 25.62420779 440.84765625 29.1171875 C440.86021391 30.32058903 440.87277157 31.52399055 440.88570976 32.7638588 C440.95162192 39.16030168 440.99353646 45.55638681 441.01586914 51.953125 C441.03770777 57.1891584 441.0996424 62.42212622 441.20043945 67.65722656 C442.22751424 122.0510408 442.22751424 122.0510408 428.65159607 145.95849609 C425.80674777 151.19743883 423.66215883 156.72669163 421.4375 162.25 C420.66835478 164.08979461 419.89679149 165.92858347 419.12109375 167.765625 C418.64820923 168.89145996 418.64820923 168.89145996 418.16577148 170.04003906 C416.75165064 172.41753899 415.35937469 173.57195016 413 175 C409.08421671 175.48947291 406.91852406 175.58879747 403.5625 173.4375 C401.50225844 170.22352317 401.47341429 167.67598143 402 164 C403.10732663 160.42201563 404.53238759 157.00593519 406 153.5625 C406.3815625 152.64017578 406.763125 151.71785156 407.15625 150.76757812 C408.0933114 148.50691751 409.04136662 146.25157741 410 144 C408.8984375 144.85677083 407.796875 145.71354167 406.6953125 146.5703125 C404.3515625 148.39322917 402.0078125 150.21614583 399.6640625 152.0390625 C398.82875 152.68875 397.9934375 153.3384375 397.1328125 154.0078125 C396.27719727 154.67329102 395.42158203 155.33876953 394.54003906 156.02441406 C393.70182617 156.67635742 392.86361328 157.32830078 392 158 C388.25146484 160.91552734 384.50292969 163.83105469 380.75439453 166.74658203 C380.01044434 167.32520996 379.26649414 167.90383789 378.5 168.5 C333.5 203.5 333.5 203.5 331.24682617 205.25219727 C329.75705446 206.41108846 328.2676299 207.57042608 326.77856445 208.73022461 C322.87489961 211.7697357 318.96429582 214.79970596 315.04296875 217.81640625 C313.82383789 218.75709961 313.82383789 218.75709961 312.58007812 219.71679688 C311.03022309 220.91239933 309.47826772 222.10528605 307.92382812 223.29492188 C307.22064453 223.83826172 306.51746094 224.38160156 305.79296875 224.94140625 C305.1796167 225.41263916 304.56626465 225.88387207 303.93432617 226.36938477 C301.48913711 228.43065168 299.26139016 230.73860984 297 233 C305.58 241.58 314.16 250.16 323 259 C326.98511478 257.40595409 329.17381479 256.32094744 332.4140625 253.796875 C333.2484082 253.15290771 334.08275391 252.50894043 334.94238281 251.84545898 C336.27027832 250.80820679 336.27027832 250.80820679 337.625 249.75 C339.50679478 248.29685819 341.38963007 246.84506297 343.2734375 245.39453125 C344.22573242 244.66057129 345.17802734 243.92661133 346.15917969 243.17041016 C351.22442366 239.30052197 356.36930691 235.53987881 361.51806641 231.78222656 C366.14926394 228.39394931 370.67732212 224.90883777 375.14355469 221.30493164 C377 220 377 220 379 220 C379.12149414 219.28666504 379.24298828 218.57333008 379.36816406 217.83837891 C380.49524385 212.77522991 382.71393763 208.12973524 384.75 203.375 C385.39582031 201.80105469 385.39582031 201.80105469 386.0546875 200.1953125 C386.70050781 198.68710937 386.70050781 198.68710937 387.359375 197.1484375 C387.74577148 196.23239746 388.13216797 195.31635742 388.53027344 194.37255859 C390.31500486 191.49149215 391.94721234 190.41900934 395 189 C398.50215266 189.0714725 400.46058348 189.66805137 403.4375 191.5 C405.82794512 195.32471219 404.92952488 198.78525904 404 203 C402.46513326 207.6194246 400.58055342 212.04486701 398.625 216.5 C398.14933594 217.67175781 397.67367188 218.84351563 397.18359375 220.05078125 C393.37571405 228.77268565 388.7321806 233.58080673 381 239 C379.4776237 240.14769575 377.9566849 241.29730193 376.4375 242.44921875 C374.96052594 243.53164403 373.48131903 244.61102855 372 245.6875 C370.36842213 246.88141824 368.73691398 248.07543176 367.10546875 249.26953125 C366.27450684 249.87619629 365.44354492 250.48286133 364.58740234 251.10791016 C360.15293398 254.35070406 355.73358127 257.61399239 351.3125 260.875 C349.70449361 262.05998612 348.09642702 263.24489054 346.48828125 264.4296875 C345.81321533 264.92710449 345.13814941 265.42452148 344.44262695 265.93701172 C343.96656006 266.28779785 343.49049316 266.63858398 343 267 C348.78245979 269.1112702 354.59477401 270.67737601 360.578125 272.0859375 C361.35692017 272.27117981 362.13571533 272.45642212 362.93811035 272.64727783 C366.20190107 273.42260823 369.46576909 274.19603764 372.73632812 274.94238281 C375.14610303 275.49474214 377.54958096 276.06964831 379.953125 276.6484375 C381.05324921 276.89090714 381.05324921 276.89090714 382.17559814 277.13827515 C387.08119597 278.34548699 390.03960183 279.86340451 393 284 C393.32624822 289.02065477 392.66491882 293.69813974 391.6706543 298.60009766 C391.52916962 299.32460617 391.38768494 300.04911469 391.24191284 300.795578 C390.77622092 303.16982223 390.30070353 305.54196254 389.82421875 307.9140625 C389.49479316 309.57353696 389.16568129 311.23307373 388.83686829 312.89266968 C388.14782856 316.36166374 387.45366483 319.82958488 386.75610352 323.296875 C385.86399798 327.73428535 384.98680015 332.17449434 384.11366558 336.61567116 C383.43837089 340.03999763 382.75415772 343.46249644 382.06736183 346.88453293 C381.74025154 348.5209561 381.41614203 350.15798216 381.09512901 351.79561234 C380.64512859 354.08526413 380.1829013 356.37212148 379.7175293 358.65869141 C379.58805405 359.3310231 379.4585788 360.0033548 379.32518005 360.69606018 C377.80603679 368.01364254 374.21898122 372.01279039 368.85546875 376.953125 C354.08355635 390.90624321 342.43384584 403.51965833 333.50830078 421.98681641 C330.92883452 427.13990359 327.94895162 432.05223822 325 437 C320.22979473 445.11061074 315.57574599 453.278226 311 461.5 C304.70223976 472.81292244 298.23271636 484.01932226 291.65283203 495.17041016 C290.46586744 497.20245146 289.29705988 499.24513966 288.14013672 501.29443359 C287.52541504 502.3767627 286.91069336 503.4590918 286.27734375 504.57421875 C285.72167725 505.56381592 285.16601074 506.55341309 284.59350586 507.57299805 C283 510 283 510 280 512 C278.0625 512.30078125 278.0625 512.30078125 276 512.3125 C275.319375 512.32925781 274.63875 512.34601562 273.9375 512.36328125 C271.36543365 511.88101881 270.63841762 511.0242818 269 509 C268.32102108 506.70111275 268.32102108 506.70111275 267.90403748 504.02420044 C267.74777327 503.04131168 267.59150906 502.05842293 267.43050957 501.04574966 C266.7511506 496.23945152 266.11267343 491.4324879 265.53540039 486.61279297 C265.33736565 484.99346863 265.33736565 484.99346863 265.1353302 483.34143066 C264.85139818 481.01781909 264.5688247 478.69404118 264.28749275 476.37011337 C263.84090919 472.68653541 263.38927768 469.00360868 262.93614197 465.3208313 C261.64905768 454.8569071 260.3671383 444.39237282 259.09790039 433.92626953 C258.3190026 427.50650328 257.5310354 421.08790441 256.73730278 414.66995621 C256.43768079 412.23282511 256.14147148 409.79527184 255.84880257 407.35729599 C255.43907259 403.9465604 255.01780729 400.53742818 254.59399414 397.12841797 C254.47701172 396.13077423 254.3600293 395.13313049 254.23950195 394.10525513 C253.16790469 385.65305949 250.63895334 378.25916055 247.3125 370.4375 C246.87550781 369.40496094 246.43851562 368.37242187 245.98828125 367.30859375 C245.66214844 366.54675781 245.33601563 365.78492188 245 365 C242.23150546 365 241.62536657 366.09261789 239.65625 368 C238.99165771 368.63671631 238.32706543 369.27343262 237.64233398 369.92944336 C236.58187866 370.9543689 236.58187866 370.9543689 235.5 372 C219.37507003 387.2789966 219.37507003 387.2789966 213.5 389.0625 C208.37051158 387.50533387 205.38481165 384.32489057 201.62646484 380.59375 C198.99374011 378.0139801 196.28622608 375.51482074 193.58959961 373.00219727 C190.38275373 370.01241713 187.19130719 367.00634697 184 364 C183.22650218 365.5194799 182.4563552 367.04066567 181.6875 368.5625 C181.04361328 369.83287109 181.04361328 369.83287109 180.38671875 371.12890625 C179.92910156 372.07636719 179.47148437 373.02382813 179 374 C178.50733643 375.01425049 178.01467285 376.02850098 177.50708008 377.07348633 C175.62813436 381.49731081 175.08177291 385.95303687 174.5 390.6953125 C174.25000543 392.56380281 174.00000527 394.43229237 173.75 396.30078125 C173.37197316 399.22113706 172.99783458 402.14196531 172.625 405.06298828 C172.25935347 407.9000816 171.88013204 410.73512957 171.5 413.5703125 C171.39365234 414.44124542 171.28730469 415.31217834 171.17773438 416.20950317 C170.56307927 420.7708349 169.90139166 424.26131259 167 428 C164.11138291 429.44430855 162.20352299 429.37688506 159 429 C156.296875 426.89453125 156.296875 426.89453125 154 424 C153.66015625 420.86328125 153.66015625 420.86328125 154.0625 417.3125 C155.05156644 408.54277752 156.02540637 399.77134266 157 391 C139.18 394.63 121.36 398.26 103 402 C110.45356949 415.38600236 117.95700915 428.71480724 125.71801758 441.92407227 C130.81821492 450.62914748 135.75319952 459.42163661 140.64648438 468.24414062 C141.48083008 469.74557617 141.48083008 469.74557617 142.33203125 471.27734375 C142.82421143 472.16671631 143.3163916 473.05608887 143.82348633 473.97241211 C144.84202745 475.92760022 144.84202745 475.92760022 146 477 C146.47958192 473.81256234 146.95858959 470.62503862 147.4375 467.4375 C147.63956055 466.09461914 147.63956055 466.09461914 147.84570312 464.72460938 C147.97783203 463.84482422 148.10996094 462.96503906 148.24609375 462.05859375 C148.37685303 461.19548584 148.5076123 460.33237793 148.64233398 459.44311523 C148.8651236 457.92130245 149.07525028 456.39751409 149.26586914 454.87133789 C149.63475965 451.92290643 149.93298028 450.10455076 151.5625 447.5625 C154.5373717 445.65553096 156.53454188 445.52289778 160 445.46875 C162.98098136 446.26057317 164.11448663 447.57671871 166 450 C166.25537109 453.16333008 166.25537109 453.16333008 165.8984375 456.95703125 C165.83764008 457.6511763 165.77684265 458.34532135 165.71420288 459.0605011 C165.50183158 461.37697923 165.253831 463.68771601 165 466 C164.91560669 466.81160583 164.83121338 467.62321167 164.7442627 468.45941162 C164.20135507 473.65410208 163.59699973 478.83912101 162.953125 484.0222168 C162.62085179 486.72119495 162.30644748 489.42191911 161.9921875 492.12304688 C161.77972917 493.85690392 161.56622676 495.59063343 161.3515625 497.32421875 C161.26081451 498.12317062 161.17006653 498.9221225 161.0765686 499.74528503 C160.45919776 504.52847776 159.55258012 508.44741988 156 512 C148.93886377 512.70611362 148.93886377 512.70611362 145.66796875 510.24609375 C141.53073366 505.74916798 138.93123245 500.02788785 136.0625 494.6875 C134.72605258 492.23309839 133.38274802 489.78247617 132.0390625 487.33203125 C131.70061813 486.71320068 131.36217377 486.09437012 131.01347351 485.45678711 C127.76424978 479.53163202 124.36800592 473.6968919 120.9375 467.875 C116.19140428 459.80376733 111.55317369 451.68161298 107 443.5 C102.24005208 434.95664131 97.41643686 426.45438449 92.5 418 C91.65501953 416.54110352 91.65501953 416.54110352 90.79296875 415.05273438 C89.71544563 413.20757247 88.62650585 411.36902279 87.52539062 409.5378418 C86.58203536 407.96835109 85.65948016 406.38588682 84.77148438 404.78442383 C81.66949785 399.56381862 77.76313333 395.77554275 73.28125 391.76171875 C57.47056757 377.57097333 47.76027212 367.47728477 45.59521484 345.61816406 C44.9257724 339.79980414 43.68557277 334.09575097 42.48828125 328.3671875 C42.25484512 327.2475914 42.021409 326.1279953 41.78089905 324.97447205 C41.30244736 322.68754335 40.82293405 320.40083652 40.34237671 318.11434937 C39.19366715 312.62705855 38.07518533 307.13423812 36.9765625 301.63671875 C36.77698441 300.66801849 36.57740631 299.69931824 36.3717804 298.70126343 C34.36295387 288.59878823 34.36295387 288.59878823 35 284 C38.77003406 278.4384615 43.88261971 277.54543146 50.078125 276.140625 C51.04530457 275.90591492 52.01248413 275.67120483 53.00897217 275.42938232 C56.08556945 274.68609551 59.16724819 273.96728823 62.25 273.25 C65.34566214 272.51350878 68.44008337 271.77208018 71.53387451 271.027771 C73.45672531 270.56692844 75.38090385 270.11158572 77.30645752 269.66217041 C78.17115662 269.45815613 79.03585571 269.25414185 79.92675781 269.04394531 C80.69111145 268.86583313 81.45546509 268.68772095 82.24298096 268.50421143 C84.01113391 268.15040884 84.01113391 268.15040884 85 267 C84.53440674 266.6596875 84.06881348 266.319375 83.58911133 265.96875 C71.41402481 257.05921095 59.29757298 248.07018495 47.38525391 238.81079102 C45.80858872 237.61384877 44.20089472 236.45661161 42.56396484 235.34350586 C36.26135304 230.92255282 33.7029903 226.51054663 30.875 219.4375 C30.13617674 217.68888034 29.39729153 215.94028662 28.65742493 214.19210815 C27.78460211 212.11774816 26.92427147 210.03847999 26.06494141 207.95849609 C23.61611373 202.05205223 21.09307857 196.17761734 18.57421875 190.30078125 C15.61502792 183.38952199 12.65702593 176.47778373 9.71240234 169.56030273 C9.24481003 168.4648111 8.77721771 167.36931946 8.29545593 166.2406311 C7.33961551 163.98015884 6.39736476 161.7138985 5.46784973 159.44247437 C3.05302859 153.58275887 0.49732168 147.97908395 -2.5847168 142.43823242 C-15.71696665 117.58758127 -13.58442866 91.15531688 -13.00921631 63.7220459 C-12.91261035 58.45566479 -12.87400171 53.18955243 -12.83782101 47.9224596 C-12.76217456 37.05953248 -12.65175695 26.19625657 -12.43334961 15.33520508 C-12.42011658 14.34165512 -12.40688354 13.34810516 -12.39324951 12.32444763 C-12.3717131 11.41294952 -12.3501767 10.50145142 -12.32798767 9.56233215 C-12.31294662 8.77298184 -12.29790556 7.98363153 -12.28240871 7.17036152 C-11.96356452 4.71998678 -11.30107937 3.09368703 -10 1 C-6.68940084 -0.65529958 -3.55345701 -0.73611292 0 0 Z M417.67247009 32.12652588 C417.11120739 32.67846737 416.54994469 33.23040885 415.97167403 33.79907584 C414.07487294 35.66592396 412.1818133 37.53651961 410.28881836 39.40722656 C408.93547132 40.7412238 407.58198811 42.07508288 406.2283783 43.40881348 C393.7838979 55.67874823 381.38001037 67.98990797 368.98566341 80.31045914 C359.84183936 89.39870385 350.67928521 98.46713744 341.49051946 107.50994515 C335.01550256 113.88561119 328.56436716 120.28486713 322.1293593 126.70090842 C318.29739724 130.52023254 314.45626916 134.32899636 310.58854485 138.11212921 C293.47774093 154.86438549 278.927979 170.60209689 268.351964 192.26352882 C266.53229866 195.94666074 264.50318466 199.4700196 262.4296875 203.015625 C260.59507635 206.23315968 258.76066387 209.45080148 256.92797852 212.66943359 C253.61335672 218.48155251 250.26284061 224.26993236 246.84765625 230.0234375 C246.18975098 231.13557617 245.5318457 232.24771484 244.85400391 233.39355469 C243.60163757 235.50518792 242.34247406 237.6128086 241.07568359 239.71582031 C240.24738037 241.1133252 240.24738037 241.1133252 239.40234375 242.5390625 C238.91241943 243.35584473 238.42249512 244.17262695 237.91772461 245.01416016 C237.46345093 245.99715088 237.46345093 245.99715088 237 247 C237.33 247.66 237.66 248.32 238 249 C245.03291346 244.96052977 252.05975887 240.91093015 259.07705688 236.84440613 C262.18672648 235.04368211 265.30391986 233.25787734 268.43359375 231.4921875 C277.8571007 226.10946437 286.23670941 219.60073548 294.70166016 212.83056641 C298.44085692 209.85239588 302.22195567 206.92861136 306 204 C307.50021041 202.83360391 309.00021026 201.66693695 310.5 200.5 C391.5 137.5 391.5 137.5 393.75415039 135.74682617 C395.240386 134.59082924 396.72655242 133.43474334 398.21264648 132.27856445 C402.17265185 129.19788313 406.13416644 126.11916621 410.09765625 123.04296875 C410.92845703 122.39779297 411.75925781 121.75261719 412.61523438 121.08789062 C414.21896419 119.84253619 415.82311566 118.59772452 417.42773438 117.35351562 C418.14380859 116.79728516 418.85988281 116.24105469 419.59765625 115.66796875 C420.54910522 114.92969849 420.54910522 114.92969849 421.51977539 114.17651367 C422.96168097 113.07617819 422.96168097 113.07617819 424 112 C424.09511266 109.35261911 424.12555635 106.73140999 424.11352539 104.08374023 C424.11374443 102.83994095 424.11374443 102.83994095 424.1139679 101.5710144 C424.11326851 98.81684802 424.10547493 96.06274839 424.09765625 93.30859375 C424.09579216 91.40430234 424.09436822 89.50001045 424.09336853 87.59571838 C424.08954263 82.57332037 424.07971173 77.55095108 424.06866455 72.52856445 C424.05845198 67.4077188 424.05387124 62.28686852 424.04882812 57.16601562 C424.03808953 47.11066443 424.02101224 37.0553346 424 27 C421.71755488 27 419.2843893 30.53061515 417.67247009 32.12652588 Z M17 143 C19.34077695 150.44877427 22.26706812 157.54479003 25.3671875 164.70703125 C26.15684403 166.54402909 26.94650013 168.38102711 27.73613167 170.2180357 C28.83519495 172.7723219 29.93765386 175.32513686 31.04003906 177.87799072 C32.69308568 181.70791123 34.3416287 185.53977163 35.99028206 189.37158489 C37.27582103 192.35942646 38.56238793 195.34681255 39.85128784 198.33320618 C40.32172516 199.42441269 40.79216248 200.5156192 41.27685547 201.63989258 C41.73239807 202.69252289 42.18794067 203.7451532 42.6572876 204.8296814 C43.57359128 206.99319356 44.46160994 209.16884963 45.324646 211.35415649 C45.95986176 212.95570084 45.95986176 212.95570084 46.60791016 214.58959961 C47.159785 216.01894081 47.159785 216.01894081 47.72280884 217.47715759 C49.94376288 221.86421977 53.45343021 224.13920232 57.5 226.75 C59.20354785 227.92458552 60.90530458 229.10177207 62.60546875 230.28125 C63.93070557 231.18423828 63.93070557 231.18423828 65.28271484 232.10546875 C69.91046328 235.33200315 74.34981114 238.80072779 78.8125 242.25 C86.75651584 248.34087513 94.79625425 254.26427188 103 260 C107.10108886 258.37843976 109.83148167 255.4232297 112.859375 252.3359375 C113.40861633 251.78386627 113.95785767 251.23179504 114.52374268 250.66299438 C116.27059293 248.90498185 118.01034601 247.1401311 119.75 245.375 C120.93573591 244.1792292 122.1219288 242.98391135 123.30859375 241.7890625 C126.21105085 238.86459747 129.1071641 235.93398126 132 233 C123.72887265 224.6633041 114.55520095 217.5905361 105.14208984 210.60766602 C99.80717065 206.63909932 94.60361937 202.52835842 89.42773438 198.35546875 C85.0338428 194.81633 80.59411521 191.34913763 76.11328125 187.92041016 C71.49542333 184.38607974 66.90119837 180.8220965 62.3125 177.25 C61.55163086 176.65791748 60.79076172 176.06583496 60.00683594 175.45581055 C56.15170636 172.45526435 52.29802204 169.45287145 48.4453125 166.44921875 C40.7930887 160.48573879 33.12926619 154.53741895 25.4375 148.625 C24.7045874 148.059021 23.9716748 147.49304199 23.21655273 146.90991211 C20.38036621 144.2493025 20.38036621 144.2493025 17 143 Z M213 174 C203.43 183.57 193.86 193.14 184 203 C188.42980412 211.12130755 192.88217177 219.22632411 197.375 227.3125 C197.70227081 227.90173248 198.02954163 228.49096497 198.36672974 229.09805298 C203.1832217 237.76750303 208.03336965 246.41550472 213 255 C213.66 255 214.32 255 215 255 C215.57161865 253.96166016 215.57161865 253.96166016 216.15478516 252.90234375 C225.21470319 236.46618532 234.46209537 220.164847 244 204 C239.89935085 199.11412017 235.65211128 194.49161185 231.125 190 C230.51293701 189.3905957 229.90087402 188.78119141 229.27026367 188.15332031 C224.13686974 183.07360449 219.02484002 178.01656002 213 174 Z M142.84521484 243.91186523 C141.97590332 244.78528564 141.1065918 245.65870605 140.2109375 246.55859375 C139.74765045 247.02233902 139.2843634 247.48608429 138.80703735 247.96388245 C137.82796966 248.9459738 136.8513362 249.93049695 135.87695312 250.91723633 C134.37940613 252.43304015 132.8740107 253.94068848 131.3671875 255.44726562 C126.62237322 259.31790752 126.62237322 259.31790752 124 264 C143.8 264 163.6 264 184 264 C180.76069504 261.57052128 177.66441941 259.57204321 174.16796875 257.56640625 C173.03939453 256.91736328 171.91082031 256.26832031 170.74804688 255.59960938 C169.56122944 254.92051783 168.37438024 254.24148177 167.1875 253.5625 C166.0122327 252.88760847 164.83710122 252.21248036 163.66210938 251.53710938 C161.42373889 250.25167066 159.18405212 248.9685205 156.94287109 247.68798828 C155.18531572 246.67987995 153.43158078 245.6649937 151.68603516 244.63623047 C147.15734743 241.5785569 147.15734743 241.5785569 142.84521484 243.91186523 Z M275.7578125 244.81640625 C274.69046875 245.41646484 273.623125 246.01652344 272.5234375 246.63476562 C271.40195312 247.27091797 270.28046875 247.90707031 269.125 248.5625 C268.0421875 249.17158203 266.959375 249.78066406 265.84375 250.40820312 C262.55645379 252.26172038 259.27681409 254.1280194 256 256 C255.42342651 256.32812683 254.84685303 256.65625366 254.25280762 256.99432373 C252.55939622 257.95951507 250.86947748 258.93082624 249.1796875 259.90234375 C248.18437012 260.47331787 247.18905273 261.04429199 246.16357422 261.63256836 C245.44959473 262.0838208 244.73561523 262.53507324 244 263 C244 263.33 244 263.66 244 264 C263.8 264 283.6 264 304 264 C299.53467435 258.79045341 295.07977128 253.89701566 290.25 249.0625 C289.57839844 248.37865234 288.90679687 247.69480469 288.21484375 246.99023438 C287.57160156 246.34505859 286.92835938 245.69988281 286.265625 245.03515625 C285.39599121 244.15935913 285.39599121 244.15935913 284.50878906 243.26586914 C281.35607461 240.62075192 278.90017336 243.04332611 275.7578125 244.81640625 Z M118 279 C125.40288246 294.66049347 125.40288246 294.66049347 133.0625 310.1875 C133.54654297 311.15107422 134.03058594 312.11464844 134.52929688 313.10742188 C135.68426782 315.4059284 136.84112391 317.70346071 138 320 C141.25329075 319.40092169 143.10664436 318.35820644 145.6171875 316.2265625 C146.29918213 315.65478271 146.98117676 315.08300293 147.68383789 314.49389648 C148.76846313 313.56879272 148.76846313 313.56879272 149.875 312.625 C151.41167701 311.33594695 152.9494518 310.04820152 154.48828125 308.76171875 C155.25221191 308.12153809 156.01614258 307.48135742 156.80322266 306.82177734 C159.84378439 304.30025349 162.94353677 301.86088997 166.0625 299.4375 C171.33716768 295.32615789 176.55747877 291.15216722 181.75 286.9375 C182.44230713 286.37667725 183.13461426 285.81585449 183.84790039 285.23803711 C184.81264282 284.4531189 184.81264282 284.4531189 185.796875 283.65234375 C186.36760742 283.18820068 186.93833984 282.72405762 187.52636719 282.24584961 C189.13257555 280.92306943 189.13257555 280.92306943 191 279 C166.91 279 142.82 279 118 279 Z M237 279 C240.66439181 282.66439181 244.23541159 285.87345563 248.3125 289 C253.5975577 293.10057305 258.81952439 297.2681153 264 301.5 C266.66497577 303.66875229 269.33212968 305.83480986 272 308 C272.66193359 308.53818359 273.32386719 309.07636719 274.00585938 309.63085938 C275.91476748 311.17796061 277.83111586 312.71529923 279.75 314.25 C280.32234375 314.71599609 280.8946875 315.18199219 281.484375 315.66210938 C284.30570162 317.90357199 286.48287283 319.28071634 290 320 C292.85108946 314.32308897 295.69909627 308.64463949 298.54492188 302.96508789 C299.51425676 301.03145996 300.48430792 299.09819093 301.45507812 297.1652832 C302.84691945 294.39367265 304.23621516 291.62079933 305.625 288.84765625 C306.06247559 287.97786636 306.49995117 287.10807648 306.95068359 286.21192932 C307.35109863 285.41117477 307.75151367 284.61042023 308.1640625 283.78540039 C308.51936035 283.0770253 308.8746582 282.36865021 309.24072266 281.6388092 C310.07006386 280.14980147 310.07006386 280.14980147 310 279 C285.91 279 261.82 279 237 279 Z M327 281 C323.4045228 288.03907891 319.82773739 295.08741987 316.26391602 302.14257812 C315.05015234 304.54327748 313.83047996 306.94083382 312.60571289 309.3359375 C310.84954712 312.77565903 309.10887312 316.22283573 307.37109375 319.671875 C306.5430851 321.28144073 306.5430851 321.28144073 305.698349 322.92352295 C305.19775467 323.92425842 304.69716034 324.9249939 304.18139648 325.95605469 C303.5118821 327.27509796 303.5118821 327.27509796 302.82884216 328.62078857 C301.89736441 331.29461794 301.97838738 332.40036233 303 335 C304.13798189 336.91754908 304.13798189 336.91754908 305.59765625 338.80859375 C306.14421875 339.54553467 306.69078125 340.28247559 307.25390625 341.04174805 C307.85074219 341.83234619 308.44757813 342.62294434 309.0625 343.4375 C309.67867188 344.26354736 310.29484375 345.08959473 310.9296875 345.94067383 C317.03240702 354.10030945 323.21296406 362.20195697 329.40625 370.29296875 C332.63147522 374.50837955 335.82497527 378.74667892 339 383 C344.21471631 378.59069799 349.3069557 374.08749186 354.25 369.375 C354.95640625 368.73949219 355.6628125 368.10398437 356.390625 367.44921875 C360.21784255 363.75972304 362.36998129 360.78738055 363.55297852 355.56005859 C363.79591644 354.49957306 364.03885437 353.43908752 364.28915405 352.34646606 C365.47460712 346.76568098 366.61493032 341.17949367 367.69921875 335.578125 C367.9391304 334.35212585 368.17904205 333.12612671 368.42622375 331.86297607 C369.18292148 327.99255097 369.9352835 324.12129825 370.6875 320.25 C371.20313415 317.60664533 371.71971891 314.96347675 372.23632812 312.3203125 C373.49418032 305.88084751 374.74848534 299.44069953 376 293 C365.05354271 289.92133336 354.09662699 286.93844085 343.0625 284.1875 C341.83337891 283.87619141 340.60425781 283.56488281 339.33789062 283.24414062 C338.16548828 282.95087891 336.99308594 282.65761719 335.78515625 282.35546875 C334.74238525 282.09403076 333.69961426 281.83259277 332.62524414 281.56323242 C329.95862204 280.89511437 329.95862204 280.89511437 327 281 Z M93.65209961 281.97802734 C92.7778685 282.19180023 91.90363739 282.40557312 91.00291443 282.62582397 C90.0622261 282.86016144 89.12153778 283.0944989 88.15234375 283.3359375 C87.18470596 283.57535065 86.21706818 283.81476379 85.22010803 284.06143188 C83.17451283 284.56903311 81.12939323 285.07855421 79.0847168 285.58984375 C75.94830913 286.37230338 72.80925554 287.14343839 69.66992188 287.9140625 C67.68472346 288.40816211 65.69969152 288.90293119 63.71484375 289.3984375 C62.30077492 289.743871 62.30077492 289.743871 60.85813904 290.09628296 C59.98706009 290.31636017 59.11598114 290.53643738 58.21850586 290.76318359 C57.45034042 290.95415619 56.68217499 291.14512878 55.89073181 291.34188843 C53.79073116 291.91902675 53.79073116 291.91902675 52 294 C52.16775986 296.79566095 52.16775986 296.79566095 52.85522461 300.06689453 C53.2119651 301.97995895 53.2119651 301.97995895 53.57591248 303.93167114 C53.85036513 305.33225273 54.12586918 306.73262864 54.40234375 308.1328125 C54.68015552 309.56805486 54.95770409 311.00334819 55.23500061 312.43869019 C55.82115059 315.4549948 56.4171724 318.46916826 57.01879883 321.48242188 C57.78405711 325.3241761 58.51470681 329.17160555 59.23648739 333.02173042 C59.79952519 335.99381365 60.3863471 338.96084682 60.97961617 341.92702866 C61.25873628 343.34220397 61.52944583 344.75906728 61.79121208 346.17755508 C63.39537617 354.8080243 65.32381703 360.99057504 72 367 C72.74693115 367.78439453 73.4938623 368.56878906 74.26342773 369.37695312 C75.21390991 370.31958008 75.21390991 370.31958008 76.18359375 371.28125 C76.88291016 371.97734375 77.58222656 372.6734375 78.30273438 373.390625 C79.35944336 374.43476563 79.35944336 374.43476563 80.4375 375.5 C81.16904297 376.22703125 81.90058594 376.9540625 82.65429688 377.703125 C84.43389824 379.47109499 86.21580918 381.23666378 88 383 C91.52701336 379.59739628 94.6015675 376.09031966 97.5625 372.1875 C97.98668213 371.62981934 98.41086426 371.07213867 98.84790039 370.49755859 C100.2364783 368.66842988 101.61869214 366.83462367 103 365 C103.47920898 364.36562012 103.95841797 363.73124023 104.45214844 363.07763672 C106.96173905 359.75446105 109.46078335 356.42398864 111.9453125 353.08203125 C114.0127905 350.30381598 116.11479424 347.55678559 118.2421875 344.82421875 C119.26575215 343.48707649 120.28919428 342.14984043 121.3125 340.8125 C121.79904053 340.20100098 122.28558105 339.58950195 122.78686523 338.95947266 C125.39094942 335.64683822 125.39094942 335.64683822 125.76271057 331.61042786 C124.96909429 328.89422314 123.9565765 326.55257849 122.68334961 324.02612305 C122.20292709 323.06550461 121.72250458 322.10488617 121.2275238 321.11515808 C120.70771439 320.0910231 120.18790497 319.06688812 119.65234375 318.01171875 C119.12105362 316.95338333 118.58976349 315.89504791 118.04237366 314.80464172 C116.34636577 311.42940083 114.6420546 308.05843141 112.9375 304.6875 C111.78525743 302.39806311 110.63355815 300.10835271 109.48242188 297.81835938 C106.66124136 292.20905206 103.83323445 286.60322771 101 281 C98.26333398 281 96.28395335 281.32984863 93.65209961 281.97802734 Z M213 293 C205.41 310.49 197.82 327.98 190 346 C197.20119233 354.40139106 204.72602819 362.81735213 214 369 C219.44411319 364.37337346 224.70154021 359.54657996 229.9375 354.6875 C230.94985718 353.75333252 230.94985718 353.75333252 231.98266602 352.80029297 C232.61615967 352.21006348 233.24965332 351.61983398 233.90234375 351.01171875 C234.47460693 350.48022217 235.04687012 349.94872559 235.63647461 349.40112305 C237.1141921 348.02436427 237.1141921 348.02436427 238 346 C237.24220329 343.6198365 237.24220329 343.6198365 236.00219727 340.90771484 C235.54164444 339.84676605 235.08109161 338.78581726 234.60658264 337.69271851 C233.84419533 335.96923691 233.84419533 335.96923691 233.06640625 334.2109375 C232.55448227 333.03737701 232.04255829 331.86381653 231.51512146 330.6546936 C230.15257322 327.53136068 228.78063468 324.41223873 227.40673828 321.29388428 C226.0070301 318.11246255 224.61618898 314.92717094 223.22460938 311.7421875 C220.49176705 305.49096282 217.74899074 299.24413952 215 293 C214.34 293 213.68 293 213 293 Z M192 299 C191.00742188 299.81082031 190.01484375 300.62164062 188.9921875 301.45703125 C182.36918077 306.85793555 175.73618525 312.24060137 169 317.5 C161.83665157 323.09552513 154.75833869 328.7970044 147.74462891 334.57910156 C146.16369013 335.86668394 144.54839182 337.1117915 142.9296875 338.3515625 C139.21943424 341.70563145 136.50901794 345.43379453 133.625 349.5 C132.40812572 351.18755206 131.18929452 352.87369433 129.96875 354.55859375 C129.33066406 355.44015137 128.69257813 356.32170898 128.03515625 357.22998047 C123.79055509 363.00724111 119.38141771 368.66278505 114.97900391 374.3203125 C114.32851074 375.16464844 113.67801758 376.00898438 113.0078125 376.87890625 C112.13600342 378.00147827 112.13600342 378.00147827 111.24658203 379.14672852 C109.81395798 380.90433316 109.81395798 380.90433316 110 383 C116.65127044 382.44202963 123.11833667 381.52132071 129.65625 380.1875 C130.95967346 379.92682739 130.95967346 379.92682739 132.28942871 379.66088867 C134.1048743 379.2967367 135.919855 378.93025982 137.734375 378.56152344 C140.51967106 377.99600605 143.30655424 377.43888346 146.09375 376.8828125 C147.86468172 376.52653038 149.63551868 376.16977678 151.40625 375.8125 C152.23950806 375.64580811 153.07276611 375.47911621 153.93127441 375.30737305 C158.0811151 374.51308219 158.0811151 374.51308219 162 373 C163.04170222 371.10465773 163.04170222 371.10465773 163.99609375 368.75341797 C164.38410156 367.84671356 164.77210938 366.94000916 165.171875 366.00582886 C165.58953125 365.01132721 166.0071875 364.01682556 166.4375 362.9921875 C166.87707031 361.96054474 167.31664062 360.92890198 167.76953125 359.86599731 C169.18593062 356.53827777 170.59321116 353.20679227 172 349.875 C173.37463902 346.63564592 174.75115486 343.39709546 176.12817383 340.15875244 C177.04260205 338.00633097 177.95520085 335.85313138 178.8659668 333.69915771 C181.18608598 328.22038564 183.5385131 322.75914975 185.953125 317.32128906 C186.42298828 316.2591922 186.89285156 315.19709534 187.37695312 314.10281372 C188.27519483 312.07807645 189.17989272 310.05618795 190.09179688 308.03756714 C190.68831055 306.6908342 190.68831055 306.6908342 191.296875 305.31689453 C191.82812988 304.13427536 191.82812988 304.13427536 192.37011719 302.92776489 C193.26691047 300.94807785 193.26691047 300.94807785 192 299 Z M236 300 C236.63091795 303.77521693 237.72181437 307.00734182 239.23730469 310.51782227 C239.70158875 311.59987442 240.1658728 312.68192657 240.64422607 313.79676819 C241.14835022 314.95824875 241.65247437 316.11972931 242.171875 317.31640625 C242.96587364 319.16209364 243.75987196 321.00778117 244.55385208 322.85347652 C245.66717422 325.43804601 246.78501054 328.02065368 247.90270996 330.60333252 C249.57212891 334.46348804 251.23527157 338.32635023 252.89897537 342.18897152 C254.19752808 345.20362831 255.49738842 348.21769379 256.79998779 351.23060608 C257.27688049 352.33472336 257.75377319 353.43884064 258.24511719 354.57641602 C258.70825821 355.6387999 259.17139923 356.70118378 259.64857483 357.79576111 C260.57221228 359.98571221 261.44882157 362.19593828 262.28392029 364.42115784 C262.69578079 365.5037236 263.1076413 366.58628937 263.53198242 367.70166016 C263.88435471 368.67245514 264.23672699 369.64325012 264.59977722 370.64346313 C266.39690947 373.66798784 267.84818251 374.12061765 271.19140625 375.01953125 C273.4563911 375.37650313 275.72678505 375.69986818 278 376 C280.13485943 376.41804538 282.25897022 376.87589338 284.38510132 377.33615112 C287.44526236 377.99490976 290.51446354 378.60488753 293.58422852 379.21704102 C295.95901601 379.69180142 298.33203287 380.17481856 300.70507812 380.65820312 C302.22906662 380.96404064 303.75315178 381.26939692 305.27734375 381.57421875 C306.33054054 381.78977669 306.33054054 381.78977669 307.40501404 382.00968933 C310.98833528 382.71627393 314.34628832 383.16139474 318 383 C316.66558629 380.17250036 315.16230649 377.70389432 313.3046875 375.19140625 C312.76223389 374.45494873 312.21978027 373.71849121 311.66088867 372.9597168 C309.11931221 369.54813248 306.57408709 366.13930169 304.02490234 362.73339844 C302.02431681 360.03282505 300.06601669 357.3056196 298.11328125 354.5703125 C290.13136253 343.53630761 281.91548949 334.65355908 271.00341797 326.49951172 C268.51524566 324.63717266 266.07880217 322.71432661 263.64233398 320.78515625 C261.95810351 319.45378689 260.26463678 318.13489326 258.5703125 316.81640625 C255.91068203 314.73400741 253.28950844 312.60932543 250.6796875 310.46484375 C249.95273682 309.86808838 249.22578613 309.27133301 248.47680664 308.65649414 C247.06143504 307.49146689 245.64902954 306.32282439 244.23999023 305.15014648 C243.28008179 304.36039429 243.28008179 304.36039429 242.30078125 303.5546875 C241.73528564 303.08530762 241.16979004 302.61592773 240.5871582 302.13232422 C238.87922151 300.79666095 238.87922151 300.79666095 236 300 Z M270 390 C272.38009527 411.61965647 272.38009527 411.61965647 275.04296875 433.19921875 C275.2182575 434.55065681 275.39332563 435.9021235 275.56819153 437.25361633 C276.01480084 440.70095664 276.46427008 444.1479172 276.91448975 447.5947876 C277.37908366 451.15605106 277.84076019 454.7176928 278.30273438 458.27929688 C279.19908275 465.18655571 280.09847446 472.0934148 281 479 C283.6908148 475.76733025 285.93884808 472.57222803 287.9609375 468.88671875 C288.50758057 467.89849121 289.05422363 466.91026367 289.61743164 465.89208984 C290.1974292 464.8345752 290.77742676 463.77706055 291.375 462.6875 C296.17358954 454.02392321 301.04712756 445.41495503 306.0625 436.875 C310.89310638 428.63753052 315.66798319 420.3712895 320.375 412.0625 C320.940979 411.06653809 321.50695801 410.07057617 322.09008789 409.04443359 C322.60434326 408.13387207 323.11859863 407.22331055 323.6484375 406.28515625 C324.33172119 405.07678101 324.33172119 405.07678101 325.02880859 403.84399414 C326.07766625 402.19988783 326.07766625 402.19988783 326 401 C307.52 397.37 289.04 393.74 270 390 Z " fill="#000000" transform="translate(42,0)"/>
</svg>
